<mxfile host="app.diagrams.net" modified="2023-01-16T13:17:07.597Z" agent="5.0 (Windows NT 10.0; Win64; x64) AppleWebKit/537.36 (KHTML, like Gecko) Chrome/109.0.0.0 Safari/537.36" version="20.8.3" etag="ZapCT-V4tyOPLyeiE1Jy" type="github">
  <diagram id="PtWwKlyaFkaLPaW4jAaW" name="Page-1">
    <mxGraphModel dx="1434" dy="731" grid="1" gridSize="10" guides="1" tooltips="1" connect="1" arrows="1" fold="1" page="1" pageScale="1" pageWidth="850" pageHeight="1100" math="0" shadow="0">
      <root>
        <mxCell id="0" />
        <mxCell id="1" parent="0" />
        <mxCell id="yziW3ixw_XL1Ro15HbjW-4" value="" style="edgeStyle=orthogonalEdgeStyle;rounded=0;orthogonalLoop=1;jettySize=auto;html=1;" edge="1" parent="1" source="yziW3ixw_XL1Ro15HbjW-2" target="yziW3ixw_XL1Ro15HbjW-3">
          <mxGeometry relative="1" as="geometry" />
        </mxCell>
        <mxCell id="yziW3ixw_XL1Ro15HbjW-2" value="Start" style="ellipse;whiteSpace=wrap;html=1;aspect=fixed;" vertex="1" parent="1">
          <mxGeometry x="40" y="270" width="80" height="80" as="geometry" />
        </mxCell>
        <mxCell id="yziW3ixw_XL1Ro15HbjW-10" value="" style="edgeStyle=orthogonalEdgeStyle;rounded=0;orthogonalLoop=1;jettySize=auto;html=1;" edge="1" parent="1" source="yziW3ixw_XL1Ro15HbjW-3" target="yziW3ixw_XL1Ro15HbjW-9">
          <mxGeometry relative="1" as="geometry" />
        </mxCell>
        <mxCell id="yziW3ixw_XL1Ro15HbjW-3" value="task(myforrit)" style="whiteSpace=wrap;html=1;" vertex="1" parent="1">
          <mxGeometry x="190" y="280" width="120" height="60" as="geometry" />
        </mxCell>
        <mxCell id="yziW3ixw_XL1Ro15HbjW-9" value="End" style="ellipse;whiteSpace=wrap;html=1;" vertex="1" parent="1">
          <mxGeometry x="520" y="270" width="80" height="80" as="geometry" />
        </mxCell>
        <mxCell id="yziW3ixw_XL1Ro15HbjW-11" value="If (controller.button.pressed())" style="text;html=1;strokeColor=none;fillColor=none;align=center;verticalAlign=middle;whiteSpace=wrap;rounded=0;" vertex="1" parent="1">
          <mxGeometry x="380" y="270" width="60" height="30" as="geometry" />
        </mxCell>
      </root>
    </mxGraphModel>
  </diagram>
</mxfile>
